<svg width="35" height="35" viewBox="0 0 35 35" fill="none" xmlns="http://www.w3.org/2000/svg">
<path d="M18.6064 2.91699C19.4667 2.91699 19.8969 2.91724 20.1826 3.17578C20.4683 3.43439 20.5112 3.86266 20.5967 4.71875L20.6533 5.28223C20.8164 6.91561 20.8976 7.73276 21.4502 7.96191C22.0029 8.19097 22.6386 7.67112 23.9092 6.63184L24.3496 6.27148C25.015 5.72722 25.3478 5.45548 25.7324 5.47461C26.1171 5.49382 26.4214 5.79735 27.0293 6.40527L28.5938 7.96973C29.202 8.57803 29.5062 8.88272 29.5254 9.26758C29.5445 9.65231 29.2721 9.98489 28.7275 10.6504L28.3691 11.0898C27.3296 12.3601 26.8093 12.9951 27.0381 13.5479C27.267 14.1007 28.0844 14.1821 29.7178 14.3457L30.2822 14.4023C31.138 14.488 31.5657 14.5317 31.8242 14.8174C32.0826 15.103 32.083 15.5327 32.083 16.3926V18.6064C32.083 19.4667 32.0828 19.8969 31.8242 20.1826C31.5656 20.4683 31.1373 20.5112 30.2812 20.5967L29.7188 20.6533C28.0854 20.8164 27.2684 20.8978 27.0391 21.4502C26.81 22.003 27.3295 22.6385 28.3691 23.9092L28.7285 24.3486C29.2728 25.0139 29.5445 25.3468 29.5254 25.7314C29.5062 26.1162 29.2028 26.4211 28.5947 27.0293L27.0303 28.5938C26.422 29.2021 26.1173 29.5062 25.7324 29.5254C25.3476 29.5445 25.0144 29.2722 24.3486 28.7275L23.9092 28.3682C22.6386 27.3286 22.003 26.809 21.4502 27.0381C20.8977 27.2674 20.8164 28.0843 20.6533 29.7178L20.5967 30.2812C20.5112 31.1374 20.4683 31.5656 20.1826 31.8242C19.8969 32.0828 19.4667 32.083 18.6064 32.083H16.3926C15.5327 32.083 15.103 32.0826 14.8174 31.8242C14.5317 31.5657 14.488 31.138 14.4023 30.2822L14.3457 29.7178C14.1821 28.0844 14.1007 27.267 13.5479 27.0381C12.9951 26.8093 12.3601 27.3296 11.0898 28.3691L10.6504 28.7275C9.98489 29.2721 9.65231 29.5445 9.26758 29.5254C8.88272 29.5062 8.57802 29.202 7.96973 28.5938L6.40527 27.0293C5.79735 26.4214 5.49382 26.1171 5.47461 25.7324C5.45548 25.3478 5.72722 25.015 6.27148 24.3496L6.63184 23.9092C7.67112 22.6386 8.19097 22.0029 7.96191 21.4502C7.73276 20.8976 6.91561 20.8164 5.28223 20.6533L4.71875 20.5967C3.86266 20.5112 3.43439 20.4683 3.17578 20.1826C2.91724 19.8969 2.91699 19.4667 2.91699 18.6064V16.3926C2.91699 15.5327 2.91736 15.103 3.17578 14.8174C3.43431 14.5317 3.86201 14.4889 4.71777 14.4033L5.28223 14.3467C6.91574 14.1834 7.73291 14.1016 7.96191 13.5488C8.1909 12.996 7.67129 12.3604 6.63184 11.0898L6.27148 10.6504C5.72717 9.98508 5.45555 9.65221 5.47461 9.26758C5.49378 8.88278 5.79717 8.57797 6.40527 7.96973L7.9707 6.40527C8.57885 5.79698 8.88276 5.49288 9.26758 5.47363C9.65234 5.45446 9.98563 5.72598 10.6514 6.27051L11.0898 6.62988C12.3604 7.6691 12.9961 8.18896 13.5488 7.95996C14.1015 7.73093 14.1833 6.91438 14.3467 5.28125L14.4033 4.71777C14.4889 3.862 14.5317 3.4343 14.8174 3.17578C15.103 2.91737 15.5327 2.91699 16.3926 2.91699H18.6064ZM17.5 11.667C14.2783 11.667 11.667 14.2783 11.667 17.5C11.667 20.7217 14.2783 23.333 17.5 23.333C20.7217 23.333 23.333 20.7217 23.333 17.5C23.333 14.2783 20.7217 11.667 17.5 11.667Z" fill="#222222"/>
</svg>
