<svg width="24" height="24" viewBox="0 0 24 24" fill="none" xmlns="http://www.w3.org/2000/svg">
<path d="M15 6H16H15ZM8.61615 12.3194L9.29311 13.0554L8.61615 12.3194ZM15.3838 12.3194L16.0608 11.5834L15.3838 12.3194ZM12 3V4C13.1046 4 14 4.89543 14 6H15H16C16 3.79086 14.2091 2 12 2V3ZM15 6H14V11.5005H15H16V6H15ZM15.3838 12.3194L14.7069 13.0554C15.5032 13.7878 16 14.8351 16 16H17H18C18 14.2524 17.2515 12.6785 16.0608 11.5834L15.3838 12.3194ZM17 16H16C16 18.2091 14.2091 20 12 20V21V22C15.3137 22 18 19.3137 18 16H17ZM12 21V20C9.79086 20 8 18.2091 8 16H7H6C6 19.3137 8.68629 22 12 22V21ZM7 16H8C8 14.8351 8.49679 13.7878 9.29311 13.0554L8.61615 12.3194L7.93919 11.5834C6.74855 12.6785 6 14.2524 6 16H7ZM9 11.5005H10V6H9H8V11.5005H9ZM9 6H10C10 4.89543 10.8954 4 12 4V3V2C9.79086 2 8 3.79086 8 6H9ZM8.61615 12.3194L9.29311 13.0554C9.68996 12.6904 10 12.1453 10 11.5005H9H8C8 11.4941 8.00183 11.4977 7.99438 11.5132C7.98627 11.5299 7.96924 11.5557 7.93919 11.5834L8.61615 12.3194ZM15 11.5005H14C14 12.1453 14.31 12.6904 14.7069 13.0554L15.3838 12.3194L16.0608 11.5834C16.0308 11.5557 16.0137 11.5299 16.0056 11.5132C15.9982 11.4977 16 11.4941 16 11.5005H15Z" fill="#33363F"/>
<circle cx="12" cy="16" r="2" fill="#33363F"/>
</svg>
